Coordinates
version=1
nRows=16
nColumns=22
inDegrees=yes

Units are S.I. units (second, meters, Newtons, ...)
If the header above contains a line with 'inDegrees', this indicates whether rotational values are in degrees (yes) or radians (no).

endheader
time	pelvis_tilt	pelvis_list	pelvis_rotation	pelvis_tx	pelvis_ty	pelvis_tz	hip_flexion_r	hip_adduction_r	hip_rotation_r	knee_angle_r	ankle_angle_r	subtalar_angle_r	hip_flexion_l	hip_adduction_l	hip_rotation_l	knee_angle_l	ankle_angle_l	subtalar_angle_l	lumbar_extension	lumbar_bending	lumbar_rotation
      0.01000000	      0.73577628	     -1.78257369	      1.66700192	      0.15002972	      0.93233395	      1.01049273	     -2.82521012	      1.24362688	     -6.35567394	     -8.08822853	      6.36496278	      5.25977678	     -3.79601151	     -4.17071134	    -11.44921574	     -6.81740195	      8.04342778	      1.01388651	     -3.49660493	     -2.02352193	      0.99162515
      0.02000000	      0.73439094	     -1.78354346	      1.66517111	      0.15001605	      0.93233403	      1.01050601	     -2.82296728	      1.24559671	     -6.35611747	     -8.08710140	      6.36518036	      5.25972100	     -3.79410188	     -4.17256834	    -11.44888923	     -6.81653111	      8.04314405	      1.01373511	     -3.50140093	     -2.02614942	      0.99182332
      0.03000000	      0.73308351	     -1.78471141	      1.66340888	      0.14999454	      0.93233539	      1.01051906	     -2.81933002	      1.24775413	     -6.35623629	     -8.08711898	      6.36486231	      5.25940671	     -3.79141596	     -4.17444865	    -11.44841109	     -6.81618584	      8.04267758	      1.01373242	     -3.50808082	     -2.02880272	      0.99340364
      0.04000000	      0.73181805	     -1.78568749	      1.66175431	      0.14997433	      0.93233343	      1.01052996	     -2.81549289	      1.24900965	     -6.35591924	     -8.08844531	      6.36406888	      5.25892256	     -3.78853724	     -4.17656244	    -11.44813314	     -6.81615434	      8.04222350	      1.01389244	     -3.51506413	     -2.03136411	      0.99541741
      0.05000000	      0.73065916	     -1.78672413	      1.65995162	      0.14995154	      0.93233391	      1.01054346	     -2.81007319	      1.25090943	     -6.35460540	     -8.09207426	      6.36261067	      5.25809633	     -3.78537514	     -4.17824273	    -11.44799586	     -6.81693645	      8.04165682	      1.01426119	     -3.52355175	     -2.03476712	      0.99802206
      0.06000000	      0.72993880	     -1.78712249	      1.65985721	      0.14996034	      0.93233146	      1.01053860	     -2.80972222	      1.25076139	     -6.35443808	     -8.09244883	      6.36250170	      5.25802602	     -3.78551337	     -4.17843726	    -11.44798676	     -6.81716514	      8.04161674	      1.01428894	     -3.52433211	     -2.03513869	      0.99814449
      0.07000000	      0.73203084	     -1.78716434	      1.65476241	      0.14989786	      0.93233501	      1.01056667	     -2.79099440	      1.25104039	     -6.34019737	     -8.12485503	      6.35611784	      5.25313324	     -3.77961117	     -4.18111403	    -11.44583518	     -6.82667438	      8.03957923	      1.01612034	     -3.54450530	     -2.04229936	      1.00405762
      0.08000000	      0.73000081	     -1.78764903	      1.65165239	      0.14988377	      0.93232993	      1.01057355	     -2.78679242	      1.25143420	     -6.34006942	     -8.12449693	      6.35656965	      5.25249049	     -3.77784193	     -4.18194436	    -11.44637169	     -6.82560988	      8.03977250	      1.01629462	     -3.54999449	     -2.04458899	      1.00361945
      0.09000000	      0.72863135	     -1.78790186	      1.65089442	      0.14985915	      0.93232786	      1.01057708	     -2.78100377	      1.25218733	     -6.33722773	     -8.12870724	      6.35689090	      5.25134862	     -3.77514897	     -4.18255361	    -11.44670455	     -6.82430532	      8.03995784	      1.01647528	     -3.55830115	     -2.04785433	      1.00224729
      0.10000000	      0.73177071	     -1.78629399	      1.64993466	      0.14982000	      0.93232942	      1.01056493	     -2.76844174	      1.24852763	     -6.32203211	     -8.15692846	      6.35836256	      5.24616532	     -3.77364385	     -4.18017304	    -11.44236929	     -6.83026134	      8.03937399	      1.01671695	     -3.57353889	     -2.05002072	      0.99308510
      0.11000000	      0.73044010	     -1.78630056	      1.65119873	      0.14980127	      0.93232665	      1.01053901	     -2.76473756	      1.24684730	     -6.32052823	     -8.15717932	      6.35926155	      5.24538953	     -3.77190448	     -4.17876437	    -11.44224565	     -6.82895874	      8.03951081	      1.01663405	     -3.58039384	     -2.04891580	      0.99222064
      0.12000000	      0.73045063	     -1.78523815	      1.65686170	      0.14977504	      0.93232937	      1.01048058	     -2.76127617	      1.24259916	     -6.31436817	     -8.16187823	      6.35997677	      5.24418572	     -3.76949026	     -4.17387658	    -11.44089122	     -6.82774809	      8.03949002	      1.01634572	     -3.59038551	     -2.04411509	      0.98877016
      0.13000000	      0.73834888	     -1.77827673	      1.66298114	      0.14973681	      0.93234444	      1.01041978	     -2.75880786	      1.23189804	     -6.28704569	     -8.18212011	      6.36281024	      5.23988380	     -3.77226369	     -4.16317824	    -11.42708564	     -6.83322240	      8.03703331	      1.01349624	     -3.61182841	     -2.04728343	      0.96298627
      0.14000000	      0.73789875	     -1.77676443	      1.67178225	      0.14973154	      0.93235071	      1.01031890	     -2.75895539	      1.22521328	     -6.28214210	     -8.18175484	      6.36350430	      5.23926245	     -3.77084332	     -4.15463265	    -11.42720676	     -6.83113346	      8.03661043	      1.01292525	     -3.61690346	     -2.03782168	      0.96249769
      0.15000000	      0.74561081	     -1.75988446	      1.68484702	      0.14971057	      0.93237168	      1.01021150	     -2.77035081	      1.20310238	     -6.23779300	     -8.17877382	      6.36733515	      5.23667412	     -3.77660403	     -4.12957081	    -11.41175197	     -6.82898375	      8.02862567	      1.00498217	     -3.63683124	     -2.04689720	      0.92594260
      0.16000000	      0.74542035	     -1.75818301	      1.69508140	      0.14972357	      0.93237816	      1.01009925	     -2.77280080	      1.19579857	     -6.23299819	     -8.17765319	      6.36762912	      5.23641999	     -3.77655405	     -4.12009155	    -11.41239450	     -6.82679116	      8.02753502	      1.00395035	     -3.63862200	     -2.03639901	      0.92747596
